<?xml version="1.0" standalone="no"?>
<!DOCTYPE svg PUBLIC "-//W3C//DTD SVG 20010904//EN"
 "http://www.w3.org/TR/2001/REC-SVG-20010904/DTD/svg10.dtd">
<svg version="1.0" xmlns="http://www.w3.org/2000/svg"
 width="1024.000000pt" height="1024.000000pt" viewBox="0 0 1024.000000 1024.000000"
 preserveAspectRatio="xMidYMid meet">

<g transform="translate(0.000000,1024.000000) scale(0.100000,-0.100000)"
fill="#000000" stroke="none">
<path d="M4815 9370 c-585 -52 -1099 -197 -1615 -455 -918 -460 -1651 -1246
-2019 -2166 -275 -688 -368 -1428 -275 -2179 21 -173 86 -487 134 -655 274
-956 869 -1775 1685 -2322 461 -308 966 -520 1505 -631 873 -180 1770 -94
2577 249 362 153 758 395 1065 651 592 493 1039 1151 1286 1895 84 250 150
562 189 883 21 178 24 723 5 895 -52 465 -128 777 -289 1185 -398 1011 -1173
1815 -2201 2284 -431 197 -861 311 -1342 356 -158 15 -583 21 -705 10z m555
-390 c867 -59 1665 -381 2305 -931 386 -331 671 -703 915 -1194 199 -401 321
-795 383 -1240 29 -209 31 -711 4 -920 -103 -790 -375 -1452 -833 -2030 -162
-203 -474 -499 -684 -648 l-66 -46 -35 43 c-87 108 -316 274 -511 372 -309
155 -630 250 -818 242 -82 -3 -88 -5 -155 -50 -148 -97 -317 -167 -495 -205
-121 -26 -449 -25 -570 1 -163 35 -341 112 -485 210 -53 37 -67 41 -130 44
-94 5 -242 -26 -430 -89 -340 -114 -615 -271 -834 -476 l-92 -85 -40 28 c-139
96 -401 333 -557 504 -533 584 -858 1303 -973 2155 -31 229 -34 704 -6 915 89
655 277 1175 614 1689 362 554 819 963 1425 1275 640 330 1366 483 2068 436z"/>
<path d="M4905 7939 c-697 -75 -1259 -433 -1636 -1039 -317 -511 -427 -1171
-294 -1766 189 -843 1014 -2029 1631 -2346 198 -102 336 -133 554 -125 117 4
162 10 234 31 232 69 434 201 696 453 355 342 688 813 945 1338 227 463 308
813 292 1255 -20 552 -204 1033 -556 1459 -393 475 -943 733 -1591 746 -102 2
-225 -1 -275 -6z m-1180 -2095 c50 -8 140 -31 200 -51 401 -129 693 -376 840
-711 103 -234 141 -546 89 -724 -36 -119 -78 -143 -238 -135 -472 22 -943 321
-1146 727 -100 199 -148 379 -157 581 -11 262 35 326 237 328 47 1 126 -6 175
-15z m3088 2 c21 -8 48 -22 59 -33 79 -70 88 -305 23 -563 -64 -249 -179 -447
-366 -625 -118 -112 -197 -169 -341 -245 -193 -101 -411 -160 -592 -160 -177
0 -226 73 -226 338 0 360 128 673 370 906 163 157 365 268 619 341 183 53 372
70 454 41z"/>
</g>
</svg>
